<svg width="429" height="74.702" viewBox="0 0 429 74.702" xmlns="http://www.w3.org/2000/svg"><g id="svgGroup" stroke-linecap="round" fill-rule="evenodd" font-size="9pt" stroke="#000" stroke-width="0.25mm" fill="#000" style="stroke:#000;stroke-width:0.25mm;fill:#000"><path d="M 95.5 73.501 L 86.5 73.501 L 86.5 21.501 L 95.2 21.501 L 95.2 30.201 Q 98 26.001 102.3 23.151 A 17.205 17.205 0 0 1 111.502 20.309 A 20.858 20.858 0 0 1 112.1 20.301 A 20.994 20.994 0 0 1 116.517 20.74 Q 119.503 21.383 121.785 22.964 A 13.128 13.128 0 0 1 122.25 23.301 A 15.751 15.751 0 0 1 127.698 30.99 A 19.154 19.154 0 0 1 127.8 31.301 Q 130.9 26.701 135.15 23.501 A 15.669 15.669 0 0 1 141.941 20.617 A 21.446 21.446 0 0 1 145.7 20.301 A 21.437 21.437 0 0 1 150.588 20.823 Q 154.174 21.663 156.663 23.852 A 12.994 12.994 0 0 1 158.35 25.651 A 18.992 18.992 0 0 1 161.761 32.923 Q 162.5 35.973 162.5 39.601 L 162.5 73.501 L 153.5 73.501 L 153.5 40.301 A 19.042 19.042 0 0 0 153.163 36.611 Q 152.727 34.406 151.728 32.662 A 10.982 10.982 0 0 0 151 31.551 A 7.974 7.974 0 0 0 145.187 28.255 A 10.678 10.678 0 0 0 144.1 28.201 A 11.926 11.926 0 0 0 137.341 30.328 A 15.996 15.996 0 0 0 135.75 31.551 Q 131.9 34.901 129 39.401 L 129 73.501 L 120 73.501 L 120 40.301 A 19.042 19.042 0 0 0 119.663 36.611 Q 119.227 34.406 118.228 32.662 A 10.982 10.982 0 0 0 117.5 31.551 A 7.974 7.974 0 0 0 111.687 28.255 A 10.678 10.678 0 0 0 110.6 28.201 A 12.02 12.02 0 0 0 104.281 30.029 A 16.244 16.244 0 0 0 102.3 31.451 Q 98.4 34.701 95.5 39.101 L 95.5 73.501 Z M 380.1 55.301 L 380.1 21.501 L 389.1 21.501 L 389.1 54.101 A 22.981 22.981 0 0 0 389.354 57.635 Q 389.642 59.482 390.257 60.97 A 10.136 10.136 0 0 0 391.7 63.451 A 8.404 8.404 0 0 0 396.813 66.471 A 12.807 12.807 0 0 0 399.3 66.701 Q 403.4 66.701 407.25 65.051 Q 411.1 63.401 414.1 60.601 L 414.1 21.501 L 423.1 21.501 L 423.1 60.001 A 15.602 15.602 0 0 0 423.202 61.854 Q 423.534 64.617 424.95 65.651 Q 426.8 67.001 429 67.001 L 427.1 74.001 Q 417.8 74.001 415.6 66.601 Q 412.1 70.201 407.5 72.451 Q 402.9 74.701 397.6 74.701 Q 393.1 74.701 389.1 72.801 A 14.441 14.441 0 0 1 383.59 68.162 A 18.266 18.266 0 0 1 382.6 66.651 A 16.24 16.24 0 0 1 380.936 62.557 Q 380.1 59.405 380.1 55.301 Z M 31 73.501 L 21.5 73.501 L 21.5 11.901 L 0 11.901 L 0 3.501 L 52.5 3.501 L 52.5 11.901 L 31 11.901 L 31 73.501 Z M 310.4 73.501 L 268.8 73.501 L 268.8 3.501 L 278.3 3.501 L 278.3 65.001 L 310.4 65.001 L 310.4 73.501 Z M 354.5 25.701 L 354.5 21.501 L 362.7 21.501 L 362.7 60.901 A 12.15 12.15 0 0 0 362.802 62.536 Q 363.134 64.97 364.55 65.851 Q 366.4 67.001 368.6 67.001 L 366.7 74.001 A 17.722 17.722 0 0 1 362.435 73.528 Q 356.798 72.128 355.203 66.581 A 13.59 13.59 0 0 1 355.1 66.201 A 21.307 21.307 0 0 1 351.99 69.627 A 28.498 28.498 0 0 1 348.85 72.051 Q 344.9 74.701 338.8 74.701 Q 332.3 74.701 327 71.401 A 22.947 22.947 0 0 1 319.587 63.874 A 27.923 27.923 0 0 1 318.55 62.051 A 27.228 27.228 0 0 1 315.92 54.108 A 36.644 36.644 0 0 1 315.4 47.801 A 33.142 33.142 0 0 1 316.397 39.532 A 27.968 27.968 0 0 1 318.55 33.801 Q 321.7 27.601 327.25 23.951 A 22.297 22.297 0 0 1 338.445 20.344 A 27.388 27.388 0 0 1 340 20.301 A 22.584 22.584 0 0 1 344.794 20.791 A 18.703 18.703 0 0 1 348.15 21.851 A 26.002 26.002 0 0 1 352.437 24.144 A 22.103 22.103 0 0 1 354.5 25.701 Z M 186.6 71.251 A 24.559 24.559 0 0 0 191.198 73.34 Q 195.253 74.701 199.9 74.701 Q 207.3 74.701 213.15 71.301 Q 219 67.901 222.4 61.751 A 26.255 26.255 0 0 0 225.053 54.609 A 34.184 34.184 0 0 0 225.8 47.301 A 34.542 34.542 0 0 0 225.315 41.392 A 25.795 25.795 0 0 0 222.35 32.951 Q 218.9 26.901 213.05 23.601 A 24.848 24.848 0 0 0 208.409 21.574 A 27.738 27.738 0 0 0 199.9 20.301 A 31.325 31.325 0 0 0 198.32 20.34 A 26.169 26.169 0 0 0 186.7 23.601 Q 180.8 26.901 177.4 33.001 A 26.023 26.023 0 0 0 174.651 40.591 A 35.006 35.006 0 0 0 174 47.501 A 34.82 34.82 0 0 0 174.265 51.854 A 27.451 27.451 0 0 0 177.35 61.651 Q 180.7 67.801 186.6 71.251 Z M 70.5 73.501 L 61.5 73.501 L 61.5 21.501 L 70.5 21.501 L 70.5 73.501 Z M 199.9 66.701 Q 207.8 66.701 212.2 61.351 A 18.802 18.802 0 0 0 216.019 53.261 A 27.105 27.105 0 0 0 216.6 47.501 Q 216.6 42.301 214.4 37.951 A 19.198 19.198 0 0 0 210.228 32.382 A 18.17 18.17 0 0 0 208.45 30.951 Q 204.7 28.301 199.9 28.301 A 19.249 19.249 0 0 0 194.674 28.972 A 14.037 14.037 0 0 0 187.6 33.501 A 17.878 17.878 0 0 0 183.926 40.874 Q 183.2 43.807 183.2 47.301 Q 183.2 52.501 185.4 56.951 A 19.437 19.437 0 0 0 188.93 61.991 A 17.627 17.627 0 0 0 191.35 64.051 Q 195.1 66.701 199.9 66.701 Z M 353.7 60.201 L 353.7 32.301 Q 351 30.401 347.75 29.251 Q 344.5 28.101 340.9 28.101 A 15.924 15.924 0 0 0 335.929 28.854 A 14.024 14.024 0 0 0 332.45 30.551 A 16.301 16.301 0 0 0 327.431 35.974 A 19.962 19.962 0 0 0 326.7 37.351 A 20.663 20.663 0 0 0 324.947 43.027 A 27.678 27.678 0 0 0 324.6 47.501 Q 324.6 53.101 326.7 57.451 A 17.602 17.602 0 0 0 329.806 61.997 A 15.697 15.697 0 0 0 332.5 64.251 Q 336.2 66.701 340.8 66.701 Q 344.6 66.701 348 64.851 Q 351.4 63.001 353.7 60.201 Z M 61.637 10.789 A 5.973 5.973 0 0 0 66 12.601 A 8.175 8.175 0 0 0 67.496 12.47 A 5.647 5.647 0 0 0 70.6 10.851 Q 72.3 9.101 72.3 6.301 A 7.26 7.26 0 0 0 72.3 6.22 A 6.06 6.06 0 0 0 70.45 1.851 A 7.395 7.395 0 0 0 70.392 1.793 A 6.059 6.059 0 0 0 66 0.001 A 8.264 8.264 0 0 0 64.344 0.158 A 5.661 5.661 0 0 0 61.4 1.701 A 5.588 5.588 0 0 0 59.929 4.333 A 7.987 7.987 0 0 0 59.7 6.301 A 5.992 5.992 0 0 0 60.192 8.719 A 6.643 6.643 0 0 0 61.55 10.701 A 7.466 7.466 0 0 0 61.637 10.789 Z" vector-effect="non-scaling-stroke"/></g></svg>