<svg width="419.482" height="72.12" viewBox="0 0 419.482 72.12" xmlns="http://www.w3.org/2000/svg"><g id="svgGroup" stroke-linecap="round" fill-rule="evenodd" font-size="9pt" stroke="#ffffff" stroke-width="0.25mm" fill="#ffffff" style="stroke:#ffffff;stroke-width:0.25mm;fill:#ffffff"><path d="M 16.357 70.361 L 16.357 69.19 A 0.496 0.496 0 0 1 16.382 69.028 Q 16.46 68.799 16.797 68.799 L 18.164 68.799 A 18.288 18.288 0 0 0 21.232 68.557 Q 22.972 68.26 24.38 67.601 A 9.626 9.626 0 0 0 25.854 66.748 Q 27.914 65.294 28.514 63.497 A 4.816 4.816 0 0 0 28.76 61.963 L 28.76 7.91 A 3.873 3.873 0 0 0 28.744 7.544 Q 28.684 6.919 28.4 6.784 A 0.372 0.372 0 0 0 28.345 6.763 A 6.369 6.369 0 0 0 28.009 6.675 Q 27.822 6.631 27.609 6.59 A 12.249 12.249 0 0 0 27.344 6.543 L 8.594 6.543 A 6.878 6.878 0 0 0 3.902 10.126 Q 3.101 11.555 2.637 13.525 A 252.374 252.374 0 0 0 2.366 14.652 Q 1.828 16.918 1.709 17.651 A 3.306 3.306 0 0 1 1.645 17.958 Q 1.489 18.555 1.172 18.555 L 0.293 18.555 Q 0.011 18.555 0 18.374 A 0.247 0.247 0 0 1 0 18.359 L 0 16.748 L 1.807 1.514 Q 2.1 0 2.783 0 A 1.181 1.181 0 0 1 3.31 0.134 Q 3.76 0.357 4.248 0.952 A 2.145 2.145 0 0 0 5.054 1.542 Q 5.759 1.855 6.866 1.898 A 9.34 9.34 0 0 0 7.227 1.904 L 59.863 1.904 A 14.037 14.037 0 0 0 60.648 1.884 Q 62.052 1.805 62.402 1.416 Q 62.842 0.928 63.232 0.464 A 1.277 1.277 0 0 1 63.725 0.095 A 1.322 1.322 0 0 1 64.233 0 A 1.157 1.157 0 0 1 64.525 0.034 Q 64.869 0.124 65 0.45 A 0.896 0.896 0 0 1 65.015 0.488 A 6.755 6.755 0 0 1 65.282 1.505 A 7.527 7.527 0 0 1 65.283 1.514 L 67.09 16.748 L 67.09 18.359 A 0.179 0.179 0 0 1 67.062 18.462 Q 66.999 18.555 66.797 18.555 L 65.918 18.555 A 0.389 0.389 0 0 1 65.605 18.394 Q 65.459 18.211 65.381 17.822 A 40.883 40.883 0 0 0 64.826 14.968 Q 64.484 13.508 64.061 12.286 A 17.07 17.07 0 0 0 63.135 10.083 A 6.449 6.449 0 0 0 59.076 6.69 A 8.067 8.067 0 0 0 58.496 6.543 L 39.697 6.543 Q 39.111 6.641 38.696 6.763 Q 38.292 6.882 38.282 7.855 A 4.886 4.886 0 0 0 38.281 7.91 L 38.281 61.963 A 5.007 5.007 0 0 0 39.474 65.186 Q 40.142 66.011 41.187 66.748 A 10.474 10.474 0 0 0 44.562 68.286 Q 46.484 68.799 48.877 68.799 L 50.293 68.799 Q 50.603 68.799 50.667 69.045 A 0.576 0.576 0 0 1 50.684 69.19 L 50.684 70.361 Q 50.684 70.671 50.438 70.735 A 0.576 0.576 0 0 1 50.293 70.752 L 16.748 70.752 Q 16.438 70.752 16.374 70.506 A 0.576 0.576 0 0 1 16.357 70.361 Z" id="0" vector-effect="non-scaling-stroke"/><path d="M 95.41 70.752 L 73.633 70.752 Q 73.161 70.658 73.145 70.108 A 1.348 1.348 0 0 1 73.145 70.068 A 0.703 0.703 0 0 1 73.441 69.512 Q 73.969 69.084 75.439 68.897 A 8.892 8.892 0 0 0 77.622 68.31 Q 80.133 67.241 80.604 64.622 A 7.297 7.297 0 0 0 80.713 63.33 L 80.713 37.5 A 2.833 2.833 0 0 0 80.39 36.128 Q 79.862 35.153 78.467 34.668 Q 77.49 34.326 76.367 34.107 A 33.083 33.083 0 0 1 75.711 33.972 Q 75.038 33.826 74.585 33.691 Q 73.988 33.514 73.791 33.358 A 0.439 0.439 0 0 1 73.755 33.325 Q 73.584 33.154 73.584 32.593 A 0.849 0.849 0 0 1 73.809 32.023 Q 73.921 31.894 74.09 31.778 A 2.338 2.338 0 0 1 74.316 31.641 L 86.768 25.781 A 10.353 10.353 0 0 1 86.972 25.682 Q 87.381 25.488 87.5 25.488 A 0.818 0.818 0 0 1 87.901 25.581 Q 88.237 25.766 88.31 26.322 A 2.604 2.604 0 0 1 88.33 26.66 L 88.33 63.33 Q 88.33 68.115 93.604 68.897 A 11.236 11.236 0 0 1 94.354 69.016 Q 95.447 69.232 95.766 69.596 A 0.485 0.485 0 0 1 95.898 69.922 Q 95.898 70.654 95.41 70.752 Z M 83.813 11.768 Q 81.787 11.768 80.249 10.498 A 4.144 4.144 0 0 1 78.757 7.717 A 6 6 0 0 1 78.711 6.958 A 5.67 5.67 0 0 1 78.917 5.389 A 4.236 4.236 0 0 1 80.176 3.369 Q 81.641 2.051 83.667 2.051 A 4.366 4.366 0 0 1 86.909 3.424 A 5.6 5.6 0 0 1 87.085 3.613 A 5.98 5.98 0 0 1 87.986 4.923 A 4.569 4.569 0 0 1 88.477 6.983 A 4.737 4.737 0 0 1 87.485 9.877 A 6.212 6.212 0 0 1 87.158 10.278 Q 85.84 11.768 83.813 11.768 Z" id="1" vector-effect="non-scaling-stroke"/><path d="M 166.113 55.371 L 166.016 45.068 A 58.498 58.498 0 0 0 165.948 42.154 Q 165.816 39.516 165.424 37.79 A 9.349 9.349 0 0 0 164.941 36.231 A 12.334 12.334 0 0 0 164.053 34.501 Q 163.245 33.206 162.207 32.398 A 5.747 5.747 0 0 0 160.19 31.407 Q 159.372 31.179 158.402 31.123 A 11.316 11.316 0 0 0 157.739 31.104 A 7.053 7.053 0 0 0 156.211 31.314 Q 153.729 31.884 149.038 34.003 A 133.612 133.612 0 0 0 145.85 35.498 Q 144.629 36.231 144.58 36.865 L 144.58 63.135 A 6.748 6.748 0 0 0 144.941 65.429 Q 145.67 67.451 147.867 68.304 A 8.853 8.853 0 0 0 149.854 68.799 Q 152.148 69.141 152.148 69.898 A 1.762 1.762 0 0 1 152.126 70.192 Q 152.1 70.341 152.046 70.452 A 0.525 0.525 0 0 1 151.66 70.752 L 129.883 70.752 Q 129.411 70.658 129.395 70.108 A 1.348 1.348 0 0 1 129.395 70.068 Q 129.395 69.141 131.689 68.799 Q 136.963 68.066 136.963 63.135 L 136.963 38.818 Q 136.963 31.831 129.093 31.212 A 20.479 20.479 0 0 0 127.49 31.152 A 8.394 8.394 0 0 0 125.228 31.504 Q 122.221 32.354 117.871 35.254 Q 116.309 36.279 115.576 37.158 L 115.576 63.135 A 6.748 6.748 0 0 0 115.937 65.429 Q 116.666 67.451 118.863 68.304 A 8.853 8.853 0 0 0 120.85 68.799 Q 123.145 69.141 123.145 69.898 A 1.762 1.762 0 0 1 123.122 70.192 Q 123.097 70.341 123.042 70.452 A 0.525 0.525 0 0 1 122.656 70.752 L 100.879 70.752 Q 100.407 70.658 100.391 70.108 A 1.348 1.348 0 0 1 100.391 70.068 Q 100.391 69.141 102.686 68.799 A 8.751 8.751 0 0 0 104.868 68.23 Q 107.367 67.182 107.846 64.561 A 7.399 7.399 0 0 0 107.959 63.233 L 107.959 35.108 A 2.833 2.833 0 0 0 107.637 33.736 Q 107.108 32.761 105.713 32.275 Q 104.736 31.934 103.613 31.714 A 33.083 33.083 0 0 1 102.957 31.579 Q 102.284 31.433 101.831 31.299 Q 101.234 31.122 101.037 30.965 A 0.439 0.439 0 0 1 101.001 30.933 Q 100.83 30.762 100.83 30.2 A 0.849 0.849 0 0 1 101.055 29.631 Q 101.167 29.501 101.336 29.385 A 2.338 2.338 0 0 1 101.563 29.248 L 114.014 23.389 A 10.353 10.353 0 0 1 114.218 23.289 Q 114.627 23.096 114.746 23.096 A 0.818 0.818 0 0 1 115.147 23.188 Q 115.483 23.374 115.556 23.93 A 2.604 2.604 0 0 1 115.576 24.268 L 115.576 32.373 A 0.415 0.415 0 0 0 115.621 32.508 Q 115.709 32.666 115.942 32.666 A 0.685 0.685 0 0 0 116.112 32.638 Q 116.523 32.527 117.554 31.983 A 45.253 45.253 0 0 0 118.251 31.606 Q 119.022 31.181 120.007 30.607 A 143.097 143.097 0 0 0 120.947 30.054 Q 122.358 29.217 124.375 28.193 A 115.869 115.869 0 0 1 126.489 27.149 A 16.592 16.592 0 0 1 133.789 25.488 A 11.207 11.207 0 0 1 137.519 26.075 Q 140.882 27.256 142.676 30.811 A 9.99 9.99 0 0 0 143.006 31.447 Q 143.837 32.907 144.531 32.642 A 12.398 12.398 0 0 0 145.004 32.448 Q 145.801 32.105 147.119 31.445 Q 151.27 29.395 155.518 27.441 Q 159.564 25.581 162.281 25.493 A 8.237 8.237 0 0 1 162.549 25.488 A 9.275 9.275 0 0 1 171.411 31.419 Q 173.828 36.53 173.828 46.045 L 173.389 60.303 L 173.389 63.135 A 5.734 5.734 0 0 0 173.74 65.205 Q 174.344 66.776 175.987 67.627 A 7.273 7.273 0 0 0 177.197 68.115 A 19.541 19.541 0 0 0 179.164 68.663 A 16.314 16.314 0 0 0 180.298 68.872 A 28.636 28.636 0 0 1 180.9 68.967 Q 181.889 69.135 182.251 69.287 A 0.703 0.703 0 0 1 182.68 69.777 A 1.138 1.138 0 0 1 182.715 70.068 A 1.048 1.048 0 0 1 182.687 70.32 Q 182.605 70.653 182.276 70.741 A 0.813 0.813 0 0 1 182.227 70.752 L 158.691 70.752 Q 158.22 70.658 158.204 70.108 A 1.348 1.348 0 0 1 158.203 70.068 Q 158.203 69.141 160.498 68.799 Q 165.723 68.066 165.723 62.744 A 22.999 22.999 0 0 0 165.911 61.174 Q 166.066 59.445 166.102 56.962 A 109.256 109.256 0 0 0 166.113 55.371 Z" id="2" vector-effect="non-scaling-stroke"/><path d="M 193.278 32.408 A 22.669 22.669 0 0 0 186.572 48.804 A 22.737 22.737 0 0 0 193.213 65.234 A 21.952 21.952 0 0 0 201.101 70.518 A 24.245 24.245 0 0 0 209.912 72.07 A 29.456 29.456 0 0 0 210.537 72.064 A 22.393 22.393 0 0 0 226.636 65.308 Q 233.301 58.545 233.301 48.682 A 27.259 27.259 0 0 0 233.294 48.059 A 21.938 21.938 0 0 0 226.27 32.105 Q 219.238 25.391 209.717 25.391 A 22.743 22.743 0 0 0 201.904 26.713 A 22.859 22.859 0 0 0 193.384 32.3 A 27.856 27.856 0 0 0 193.278 32.408 Z M 198.73 61.377 A 19.338 19.338 0 0 0 202.152 65.712 A 13.634 13.634 0 0 0 211.768 69.434 Q 218.164 69.434 221.558 64.307 A 19.938 19.938 0 0 0 224.454 57.085 A 27.712 27.712 0 0 0 224.951 51.709 A 25.979 25.979 0 0 0 223.317 42.82 A 36.427 36.427 0 0 0 220.19 36.377 A 19.183 19.183 0 0 0 216.802 32.147 A 13.461 13.461 0 0 0 207.373 28.516 Q 201.906 28.516 198.592 32.884 A 14.506 14.506 0 0 0 198.071 33.618 A 19.386 19.386 0 0 0 195.375 40.017 Q 194.678 43.007 194.678 46.558 Q 194.678 54.395 198.73 61.377 Z" id="3" vector-effect="non-scaling-stroke"/><path d="M 315.43 70.752 L 266.162 70.752 Q 265.852 70.752 265.788 70.506 A 0.576 0.576 0 0 1 265.771 70.361 L 265.771 69.19 Q 265.771 68.88 266.017 68.816 A 0.576 0.576 0 0 1 266.162 68.799 L 267.334 68.799 A 16.979 16.979 0 0 0 271.035 68.413 A 13.206 13.206 0 0 0 274.658 67.041 Q 275.928 66.309 276.758 64.771 A 6.968 6.968 0 0 0 277.568 61.914 A 8.367 8.367 0 0 0 277.588 61.328 L 277.588 9.668 Q 277.588 6.95 274.439 5.373 A 11.412 11.412 0 0 0 273.682 5.029 Q 270.947 3.858 267.871 3.858 L 266.797 3.858 Q 266.487 3.858 266.423 3.612 A 0.576 0.576 0 0 1 266.406 3.467 L 266.406 2.295 Q 266.406 1.985 266.652 1.921 A 0.576 0.576 0 0 1 266.797 1.904 L 299.854 1.904 Q 300.163 1.904 300.227 2.15 A 0.576 0.576 0 0 1 300.244 2.295 L 300.244 3.467 Q 300.244 3.777 299.998 3.841 A 0.576 0.576 0 0 1 299.854 3.858 L 297.754 3.858 A 30.427 30.427 0 0 0 293.296 4.169 A 22.318 22.318 0 0 0 288.867 5.274 A 2.994 2.994 0 0 0 288.224 5.581 A 1.91 1.91 0 0 0 287.427 6.567 A 3.907 3.907 0 0 0 287.281 7.139 Q 287.166 7.754 287.128 8.684 A 24.377 24.377 0 0 0 287.109 9.668 L 287.109 63.818 A 2.19 2.19 0 0 0 287.451 64.746 Q 287.659 65.072 287.988 65.381 A 2.822 2.822 0 0 0 288.736 65.894 A 2.385 2.385 0 0 0 289.746 66.113 L 309.033 66.113 Q 312.369 66.113 315.618 63.093 A 21.283 21.283 0 0 0 317.578 60.986 Q 318.701 59.619 320.361 57.349 A 86.879 86.879 0 0 1 320.939 56.567 Q 322.095 55.023 322.412 54.785 A 6.316 6.316 0 0 1 322.708 54.576 Q 323.858 53.812 323.964 54.649 A 1.487 1.487 0 0 1 323.975 54.834 A 1.247 1.247 0 0 1 323.889 55.283 A 1.531 1.531 0 0 1 323.828 55.42 L 316.455 69.873 Q 316.016 70.752 315.43 70.752 Z" id="5" vector-effect="non-scaling-stroke"/><path d="M 350.293 46.729 L 350.293 37.354 A 10.977 10.977 0 0 0 349.894 34.295 A 7.481 7.481 0 0 0 345.996 29.59 Q 344.59 28.863 342.63 28.858 A 10.66 10.66 0 0 0 342.603 28.858 A 5.518 5.518 0 0 0 340.425 29.325 Q 339.687 29.639 338.943 30.166 A 10.324 10.324 0 0 0 338.599 30.42 A 5.083 5.083 0 0 0 336.617 34.037 A 7.421 7.421 0 0 0 336.572 34.863 L 336.816 36.768 A 0.936 0.936 0 0 1 336.577 37.038 Q 335.869 37.631 333.301 38.721 A 188.553 188.553 0 0 1 332.188 39.189 Q 329.987 40.106 329.59 40.186 Q 328.809 40.186 328.809 38.306 A 7.488 7.488 0 0 1 329.039 36.517 Q 329.231 35.739 329.581 34.903 A 14.484 14.484 0 0 1 329.932 34.131 A 13.929 13.929 0 0 1 332.369 30.66 A 16.399 16.399 0 0 1 333.105 29.932 A 16.856 16.856 0 0 1 338.232 26.599 A 15.289 15.289 0 0 1 344.043 25.488 Q 350.195 25.488 354.053 28.882 A 12.122 12.122 0 0 1 356.55 31.853 A 9.946 9.946 0 0 1 357.91 36.963 L 357.91 62.695 A 2.202 2.202 0 0 0 358.7 64.42 A 3.245 3.245 0 0 0 359.106 64.722 A 4.902 4.902 0 0 0 361.339 65.456 A 6.088 6.088 0 0 0 361.865 65.479 A 5.002 5.002 0 0 0 363.092 65.335 A 3.759 3.759 0 0 0 364.478 64.673 A 11.767 11.767 0 0 1 364.848 64.399 Q 365.601 63.867 365.918 63.867 Q 366.278 63.867 366.306 64.76 A 5.011 5.011 0 0 1 366.309 64.917 A 2.043 2.043 0 0 1 365.688 66.389 A 3.078 3.078 0 0 1 365.332 66.699 A 86.014 86.014 0 0 1 362.752 68.525 Q 358.729 71.252 356.557 71.882 A 4.167 4.167 0 0 1 355.42 72.07 A 3.231 3.231 0 0 1 353.157 71.079 Q 351.532 69.534 350.342 65.576 A 3.745 3.745 0 0 0 350.297 65.437 Q 350.193 65.132 350.116 65.132 A 0.04 0.04 0 0 0 350.098 65.137 Q 344.432 69.386 342.7 70.471 A 10.814 10.814 0 0 1 342.48 70.606 Q 338.654 72.799 334.805 71.469 A 10.188 10.188 0 0 1 334.448 71.338 Q 330.42 69.775 328.613 66.162 A 9.124 9.124 0 0 1 327.734 62.207 A 9.029 9.029 0 0 1 328.242 59.117 A 7.813 7.813 0 0 1 330.811 55.615 A 12.947 12.947 0 0 1 332.838 54.332 Q 336.182 52.577 342.529 50.928 A 27.253 27.253 0 0 0 345.624 49.91 A 21.622 21.622 0 0 0 347.754 48.926 A 46.461 46.461 0 0 0 348.294 48.634 Q 349.732 47.845 350.072 47.499 A 0.415 0.415 0 0 0 350.171 47.363 A 2.27 2.27 0 0 0 350.257 47.059 Q 350.292 46.892 350.293 46.738 A 1.406 1.406 0 0 0 350.293 46.729 Z M 350.293 61.035 L 350.293 51.123 A 1.784 1.784 0 0 0 350.285 50.947 Q 350.268 50.775 350.213 50.685 A 0.184 0.184 0 0 0 350.049 50.586 Q 349.861 50.586 349.76 50.615 A 0.308 0.308 0 0 0 349.707 50.635 L 338.379 55.908 Q 336.621 57.178 336.011 58.057 A 2.474 2.474 0 0 0 335.709 58.687 Q 335.486 59.356 335.424 60.41 A 14.87 14.87 0 0 0 335.4 61.279 A 5.422 5.422 0 0 0 337.028 65.179 A 7.22 7.22 0 0 0 337.207 65.357 Q 339.014 67.09 341.333 67.09 A 7.009 7.009 0 0 0 343.108 66.84 Q 344.721 66.416 346.699 65.273 A 24.418 24.418 0 0 0 346.973 65.112 Q 350.293 63.135 350.293 61.035 Z" id="6" vector-effect="non-scaling-stroke"/><path d="M 404.346 70.85 L 404.346 66.455 Q 404.104 65.634 403.719 65.888 A 0.534 0.534 0 0 0 403.711 65.894 A 3.743 3.743 0 0 1 403.48 66.035 Q 402.923 66.356 401.312 67.182 A 257.377 257.377 0 0 1 400.537 67.578 A 61.894 61.894 0 0 1 395.382 69.874 Q 390.052 71.942 385.991 72.105 A 17.107 17.107 0 0 1 385.303 72.119 A 14.962 14.962 0 0 1 381.98 71.775 Q 379.828 71.284 378.287 70.095 A 8.294 8.294 0 0 1 376.514 68.213 A 5.663 5.663 0 0 1 375.686 66.174 A 7.916 7.916 0 0 1 375.537 64.6 L 375.537 34.815 A 3.714 3.714 0 0 0 374.387 32.486 A 4.768 4.768 0 0 0 374.268 32.373 A 6.605 6.605 0 0 0 373.018 31.535 A 4.796 4.796 0 0 0 371.118 31.006 Q 369.482 30.908 369.482 30.005 A 1.563 1.563 0 0 1 369.533 29.592 Q 369.663 29.115 370.133 28.946 A 1.349 1.349 0 0 1 370.264 28.906 L 381.445 25.684 A 3.787 3.787 0 0 1 382.237 25.508 A 3.312 3.312 0 0 1 382.593 25.488 A 0.524 0.524 0 0 1 382.88 25.563 Q 383.088 25.696 383.138 26.062 A 1.893 1.893 0 0 1 383.154 26.318 L 383.154 59.082 Q 383.154 62.5 386.182 64.356 A 11.819 11.819 0 0 0 389.615 65.744 Q 391.556 66.211 393.921 66.211 A 13.574 13.574 0 0 0 402.393 63.33 A 10.023 10.023 0 0 0 403.875 61.896 A 8.859 8.859 0 0 0 404.346 61.279 L 404.346 34.815 A 3.714 3.714 0 0 0 403.196 32.486 A 4.768 4.768 0 0 0 403.076 32.373 A 6.605 6.605 0 0 0 401.826 31.535 A 4.796 4.796 0 0 0 399.927 31.006 Q 398.291 30.908 398.291 30.005 A 1.563 1.563 0 0 1 398.341 29.592 Q 398.472 29.115 398.942 28.946 A 1.349 1.349 0 0 1 399.072 28.906 L 410.254 25.684 A 3.787 3.787 0 0 1 411.046 25.508 A 3.312 3.312 0 0 1 411.401 25.488 Q 411.928 25.488 411.961 26.346 A 3.087 3.087 0 0 1 411.963 26.465 L 411.963 61.133 A 8.636 8.636 0 0 0 412.158 62.245 Q 412.482 63.542 413.184 64.209 A 2.882 2.882 0 0 0 414.156 64.801 Q 415.036 65.137 416.357 65.137 L 419.189 64.941 A 0.237 0.237 0 0 1 419.414 65.091 Q 419.469 65.204 419.48 65.405 A 1.87 1.87 0 0 1 419.482 65.503 A 0.807 0.807 0 0 1 419.224 66.092 Q 419.048 66.267 418.75 66.406 L 405.762 71.777 Q 405.383 71.967 405.076 72.034 A 1.484 1.484 0 0 1 404.761 72.07 Q 404.388 72.07 404.35 71.088 A 6.128 6.128 0 0 1 404.346 70.85 Z" id="7" vector-effect="non-scaling-stroke"/><path d="M265.19 33V28.644H269.326V33H265.19Z" fill="#F13024"/></g></svg>